#!OML:ASF E:\Steps\Project 1\Capture day 1\Session 2\Subject.ASF
:FULLY-SPECIFIED
:DEGREES
216
root 8.1512 16.1619 30.3434 -154.959 1.08296 176.455
lowerback -24.9966 -1.40343 -7.55914
upperback 0.211063 0.886867 -1.17293
thorax 14.2812 0.0478901 3.35049
lowerneck -5.14422 -1.77272 -1.39088
upperneck 18.188 -3.5923 1.97931
head 6.42394 -2.04295 0.567882
rclavicle 1.83876e-015 1.5704e-014
rhumerus -33.3736 -15.8255 -80.0229
rradius 32.7686
rwrist -1.78307
rhand -8.80321 -51.7651
rfingers 7.12502
rthumb 17.1359 -81.0295
lclavicle 1.83876e-015 1.5704e-014
lhumerus -30.8966 8.42933 78.6276
lradius 20.832
lwrist -7.69327
lhand -18.6841 -14.3515
lfingers 7.12502
lthumb 7.61005 15.4916
rfemur -19.6956 6.65705 21.0528
rtibia 10.0779
rfoot -25.2616 -4.46113
rtoes -25.9023
lfemur -50.8592 -9.03731 -16.9816
ltibia 28.0031
lfoot -7.35943 3.86418
ltoes -39.1239
217
root 8.14909 16.1412 30.291 -154.668 1.33134 176.527
lowerback -25.2797 -1.30921 -7.42089
upperback 0.159122 1.01289 -1.22096
thorax 14.3672 0.119171 3.26632
lowerneck -5.06722 -1.74126 -1.55484
upperneck 18.1563 -3.55655 2.12055
head 6.40483 -2.02719 0.643832
rclavicle -2.33572e-015 1.98785e-014
rhumerus -33.145 -15.5881 -80.2723
rradius 32.8817
rwrist -1.67381
rhand -8.79377 -51.733
rfingers 7.12502
rthumb 17.1449 -80.9966
lclavicle -2.33572e-015 1.98785e-014
lhumerus -31.046 8.69119 78.3637
lradius 20.5463
lwrist -7.8569
lhand -18.5285 -14.5122
lfingers 7.12502
lthumb 7.76021 15.3254
rfemur -19.9959 6.95069 21.0511
rtibia 10.4483
rfoot -25.5972 -4.45382
rtoes -26.0343
lfemur -51.2697 -8.81585 -16.8155
ltibia 27.1079
lfoot -7.13961 3.93908
ltoes -38.9684
218
root 8.15201 16.1339 30.2378 -154.802 1.32462 176.398
lowerback -25.0802 -1.34365 -7.57447
upperback 0.242142 0.987957 -1.22492
thorax 14.3553 0.0910684 3.33681
lowerneck -5.23812 -1.60576 -1.73237
upperneck 18.2655 -3.34735 2.12597
head 6.46794 -1.93451 0.687243
rclavicle -5.81445e-015 3.18055e-015
rhumerus -32.8825 -15.1337 -80.5354
rradius 33.1412
rwrist -1.76569
rhand -8.70235 -52.2815
rfingers 7.12502
rthumb 17.2329 -81.5374
lclavicle -5.81445e-015 3.18055e-015
lhumerus -31.1495 9.28593 78.0817
lradius 20.2556
lwrist -8.189
lhand -18.3293 -14.6341
lfingers 7.12502
lthumb 7.95249 15.1963
rfemur -19.5909 6.9523 20.9803
rtibia 10.4763
rfoot -25.8811 -4.50547
rtoes -25.9742
lfemur -51.1149 -8.82525 -16.9455
ltibia 26.1388
lfoot -6.79691 3.92417
ltoes -39.2892
219
root 8.15481 16.1323 30.1786 -154.902 1.14456 176.481
lowerback -24.9319 -1.40268 -7.53721
upperback 0.301606 0.85787 -1.12015
thorax 14.3548 0.0227404 3.38619
lowerneck -4.09964 -2.14032 -1.92806
upperneck 17.7062 -4.00233 1.64006
head 6.10034 -2.31719 0.540933
rclavicle -6.95746e-016 -6.36111e-015
rhumerus -32.6164 -14.4501 -80.8038
rradius 33.3379
rwrist -1.9649
rhand -8.79481 -52.6331
rfingers 7.12502
rthumb 17.1439 -81.8967
lclavicle -6.95746e-016 -6.36111e-015
lhumerus -31.2943 10.1726 77.7485
lradius 19.8921
lwrist -8.83162
lhand -18.2811 -14.328
lfingers 7.12502
lthumb 7.99903 15.5007
rfemur -19.2231 6.43617 21.1884
rtibia 10.3953
rfoot -26.0325 -4.14668
rtoes -25.7904
lfemur -50.9961 -8.94838 -16.7306
ltibia 25.2305
lfoot -6.52389 4.13292
ltoes -38.6929
220
root 8.15754 16.1097 30.0997 -154.605 1.10378 176.45
lowerback -25.5199 -1.47021 -7.59808
upperback 0.312325 0.858073 -1.11907
thorax 14.7008 0.00928099 3.42981
lowerneck -5.53803 -1.39933 -1.72142
upperneck 18.6123 -3.05064 1.93902
head 6.62197 -1.80753 0.641243
rclavicle 1.54058e-015 2.08724e-014
rhumerus -32.4602 -14.0333 -81.0384
rradius 33.5618
rwrist -2.12679
rhand -8.89556 -52.4601
rfingers 7.12502
rthumb 17.047 -81.7321
lclavicle 1.54058e-015 2.08724e-014
lhumerus -31.3868 10.7736 77.3883
lradius 19.4876
lwrist -9.42359
lhand -18.4417 -14.0313
lfingers 7.12502
lthumb 7.84401 15.8032
rfemur -18.9788 6.13166 21.2643
rtibia 10.0026
rfoot -26.1184 -3.84821
rtoes -25.4011
lfemur -51.2166 -8.91207 -16.7947
ltibia 24.3764
lfoot -6.15331 4.07347
ltoes -37.7196
221
root 8.1572 16.1047 30.0317 -154.78 1.08199 176.387
lowerback -25.4432 -1.39651 -7.65099
upperback 0.4098 0.976411 -1.21237
thorax 14.7626 0.0554088 3.3938
lowerneck -4.65453 -1.9606 -1.19105
upperneck 18.3333 -3.74906 0.945887
head 6.36443 -2.20358 0.200455
rclavicle 2.28602e-015 9.93923e-015
rhumerus -32.4114 -13.7872 -81.2928
rradius 33.8992
rwrist -2.36547
rhand -9.19442 -52.0095
rfingers 7.12502
rthumb 16.7593 -81.3061
lclavicle 2.28602e-015 9.93923e-015
lhumerus -31.4453 10.8123 77.1324
lradius 19.1838
lwrist -9.66134
lhand -18.6881 -14.0106
lfingers 7.12502
lthumb 7.60618 15.8326
rfemur -18.2879 5.97287 21.2488
rtibia 9.62562
rfoot -26.2325 -3.74302
rtoes -25.1745
lfemur -50.8899 -8.97926 -16.9024
ltibia 23.4545
lfoot -5.90459 4.12111
ltoes -38.0623
222
root 8.15656 16.0996 29.9708 -154.871 1.14666 176.391
lowerback -25.3189 -1.31783 -7.66516
upperback 0.440309 1.07676 -1.25892
thorax 14.7181 0.101052 3.38307
lowerneck -4.69347 -1.79286 -1.29813
upperneck 18.3351 -3.55749 1.2705
head 6.37702 -2.09197 0.333984
rclavicle -5.56597e-015 3.22031e-014
rhumerus -32.3956 -13.3455 -81.5409
rradius 34.2468
rwrist -2.55678
rhand -9.85105 -51.9508
rfingers 7.12502
rthumb 16.1271 -81.2998
lclavicle -5.56597e-015 3.22031e-014
lhumerus -31.5815 10.9296 76.912
lradius 18.8949
lwrist -9.82166
lhand -18.7953 -14.0813
lfingers 7.12502
lthumb 7.50278 15.7656
rfemur -17.9228 5.75933 21.2669
rtibia 9.52895
rfoot -26.4068 -3.49413
rtoes -25.1678
lfemur -50.7011 -8.78801 -16.999
ltibia 22.6369
lfoot -5.29388 4.00648
ltoes -37.3634
223
root 8.15791 16.0914 29.9082 -154.915 1.19504 176.327
lowerback -25.2753 -1.33719 -7.79809
upperback 0.49759 1.0819 -1.24503
thorax 14.7601 0.0868813 3.47584
lowerneck -4.64894 -1.63313 -1.44862
upperneck 18.2044 -3.33948 1.4766
head 6.33022 -1.97686 0.441716
rclavicle -1.69961e-014 9.93923e-015
rhumerus -32.1491 -12.9488 -81.7409
rradius 34.4532
rwrist -2.57273
rhand -10.13 -52.4336
rfingers 7.12502
rthumb 15.8584 -81.8042
lclavicle -1.69961e-014 9.93923e-015
lhumerus -31.7618 11.0352 76.8047
lradius 18.7781
lwrist -9.70287
lhand -18.8926 -13.9849
lfingers 7.12502
lthumb 7.40886 15.8654
rfemur -17.6629 5.86292 21.1928
rtibia 9.61197
rfoot -26.5944 -3.60611
rtoes -25.1277
lfemur -50.5794 -8.56479 -17.1863
ltibia 21.9341
lfoot -4.77142 3.652
ltoes -37.0262
224
root 8.15599 16.0819 29.8404 -154.95 1.2267 176.227
lowerback -25.3658 -1.37547 -7.9193
upperback 0.60888 1.07724 -1.2504
thorax 14.9455 0.0621399 3.53726
lowerneck -4.64279 -1.48029 -1.42999
upperneck 18.022 -3.09028 1.41425
head 6.26588 -1.85147 0.438321
rclavicle 8.84592e-015 8.15017e-015
rhumerus -31.6789 -12.7753 -81.9273
rradius 34.4077
rwrist -2.51915
rhand -9.6538 -52.744
rfingers 7.12502
rthumb 16.317 -82.0775
lclavicle 8.84592e-015 8.15017e-015
lhumerus -31.9397 10.9965 76.7749
lradius 18.8296
lwrist -9.34715
lhand -19.0426 -13.6111
lfingers 7.12502
lthumb 7.26401 16.2442
rfemur -17.3377 5.97153 21.0926
rtibia 9.67753
rfoot -26.8383 -3.8461
rtoes -25.6328
lfemur -50.4315 -8.55249 -17.3269
ltibia 21.2687
lfoot -4.84249 3.59311
ltoes -36.1785
225
root 8.15271 16.0693 29.7666 -154.937 1.39799 176.232
lowerback -25.5629 -1.27828 -7.88147
upperback 0.699715 1.22882 -1.32645
thorax 15.1521 0.124461 3.48573
lowerneck -4.83638 -1.29999 -1.35063
upperneck 18.0586 -2.81467 1.30547
head 6.30429 -1.7146 0.407514
rclavicle 2.08724e-015 -1.96797e-014
rhumerus -31.3643 -12.7304 -82.1507
rradius 34.4415
rwrist -2.53578
rhand -8.84965 -52.1044
rfingers 7.12502
rthumb 17.0912 -81.3726
lclavicle 2.08724e-015 -1.96797e-014
lhumerus -31.9726 11.1877 76.5525
lradius 18.639
lwrist -9.44889
lhand -18.9921 -13.4483
lfingers 7.12502
lthumb 7.31282 16.4053
rfemur -17.0099 5.90563 21.0855
rtibia 9.61285
rfoot -27.0264 -3.83472
rtoes -26.8564
lfemur -50.2633 -8.61203 -17.2461
ltibia 20.6432
lfoot -5.08834 3.85466
ltoes -34.853
226
root 8.15088 16.0566 29.6957 -154.904 1.72882 176.199
lowerback -25.6335 -1.09582 -7.90103
upperback 0.692418 1.51537 -1.48338
thorax 15.1549 0.262522 3.42325
lowerneck -4.91726 -1.56677 -1.36495
upperneck 18.1087 -3.23598 1.59758
head 6.34566 -1.89694 0.471787
rclavicle -1.49089e-014 2.50469e-014
rhumerus -31.3203 -12.6388 -82.4062
rradius 34.7186
rwrist -2.68854
rhand -8.78947 -51.4249
rfingers 7.12502
rthumb 17.1491 -80.6881
lclavicle -1.49089e-014 2.50469e-014
lhumerus -32.0141 11.4545 76.1639
lradius 18.2772
lwrist -9.94488
lhand -18.8496 -13.4549
lfingers 7.12502
lthumb 7.45031 16.3939
rfemur -16.7894 6.02591 20.9801
rtibia 9.59851
rfoot -27.1261 -3.76876
rtoes -27.4806
lfemur -50.0943 -8.56048 -17.2527
ltibia 20.126
lfoot -5.089 3.95501
ltoes -34.4828
227
root 8.14819 16.0535 29.6304 -155.093 1.85464 176.074
lowerback -25.2273 -1.00796 -8.03393
upperback 0.605534 1.64702 -1.58956
thorax 14.8045 0.337554 3.41816
lowerneck -4.87382 -1.71895 -1.46391
upperneck 18.4023 -3.5375 1.87964
head 6.4432 -2.04262 0.553475
rclavicle 9.34288e-015 -2.18663e-014
rhumerus -31.5349 -12.3487 -82.5739
rradius 35.1179
rwrist -2.97607
rhand -9.29597 -52.1042
rfingers 7.12502
rthumb 16.6615 -81.4091
lclavicle 9.34288e-015 -2.18663e-014
lhumerus -32.3732 11.6563 75.7895
lradius 18.0191
lwrist -10.3301
lhand -18.7767 -13.4221
lfingers 7.12502
lthumb 7.52066 16.4242
rfemur -16.3664 6.33228 20.8142
rtibia 9.68735
rfoot -27.274 -4.04929
rtoes -27.493
lfemur -49.7018 -8.71827 -17.3472
ltibia 19.6028
lfoot -5.09537 3.97581
ltoes -34.633
228
root 8.14035 16.0374 29.5538 -154.855 2.00557 176.137
lowerback -25.2777 -0.96356 -7.91387
upperback 0.400824 1.6846 -1.60827
thorax 14.5857 0.387238 3.34474
lowerneck -4.57162 -1.53137 -1.45014
upperneck 18.0766 -3.22708 1.73533
head 6.2784 -1.89929 0.534217
rclavicle -4.37326e-015 3.57812e-015
rhumerus -31.7314 -11.8351 -82.7454
rradius 35.4988
rwrist -3.32578
rhand -9.37645 -53.4052
rfingers 7.12502
rthumb 16.584 -82.7166
lclavicle -4.37326e-015 3.57812e-015
lhumerus -32.837 11.8951 75.4929
lradius 17.8766
lwrist -10.4076
lhand -18.6829 -13.3003
lfingers 7.12502
lthumb 7.61126 16.5428
rfemur -16.4533 6.55284 20.7711
rtibia 9.89416
rfoot -27.4276 -4.17352
rtoes -27.913
lfemur -49.834 -8.86862 -17.1014
ltibia 19.1884
lfoot -5.07214 4.36909
ltoes -35.6915
